# xmcd
#
# Track frame offsets: 
#        150
#        15640
#        34787
#        53064
#        71354
#        81626
#        98853
#        111745
#        126460
#        144182
#        157557
#        169941
#        183096
#
# Disc length: 2618 seconds
#
# Revision: 0
# Processed by: cddbd v1.5.2PL0 Copyright (c) Steve Scherf et al.
# Submitted via: ExactAudioCopy v1.0b1
#
DISCID=aa0a380d
DTITLE=Charlie McCoy and Friends - Duets
DYEAR=2010
DGENRE=Blues
TTITLE0=Harp Playin'Fools
TTITLE1=Monday at the bakery
TTITLE2=A Georgia goodbye
TTITLE3=Sweet Morgane's blues
TTITLE4=Just doing nothing with you
TTITLE5=Uptown
TTITLE6=Fanny Man blues
TTITLE7=Faudin cross blues
TTITLE8=Blues in the basement
TTITLE9=Goodbye world goodbye
TTITLE10=Snake bite
TTITLE11=Pretty Magic
TTITLE12=Julia
EXTD=
EXTT0=
EXTT1=
EXTT2=
EXTT3=
EXTT4=
EXTT5=
EXTT6=
EXTT7=
EXTT8=
EXTT9=
EXTT10=
EXTT11=
EXTT12=
PLAYORDER=
